<svg width="558" height="337" viewBox="0 0 558 337" fill="none" xmlns="http://www.w3.org/2000/svg">
<path fill-rule="evenodd" clip-rule="evenodd" d="M230.057 173.011C232.372 173.318 234.822 173.205 237.269 173.09C250.225 173.225 265.267 173.589 277.856 169.409C294.421 163.761 303.304 154.151 306.97 142.798C312.116 126.815 305.827 106.549 293.089 91.1154C280.498 75.7304 261.924 64.8675 243.736 65.7807C231.311 66.2892 218.823 72.367 208.375 86.5792C196.439 102.624 195.541 121.423 200.934 139.993C202.888 147.168 205.92 153.769 209.428 160.531C202.182 159.508 194.867 158.465 187.457 157.388C163.451 153.097 139.115 145.902 116.464 136.94C86.3665 125.491 59.273 109.453 34.9874 88.2989C32.6606 86.5902 29.2565 86.8518 27.3439 89.008C25.4355 91.1656 25.6969 94.5119 27.8838 96.6397C53.14 118.583 81.2413 135.425 112.538 147.275C135.999 156.042 160.892 163.885 185.704 167.979C196.02 169.561 206.156 171.084 216.323 172.15C225.525 185.937 236.806 198.091 247.001 206.619C315.703 262.171 434.145 259.338 517.873 245.376C520.782 244.95 522.71 242.33 522.234 239.376C521.753 236.421 518.945 234.551 516.035 234.977C435.011 248.445 320.283 252.056 253.824 198.185C246.009 191.848 237.574 182.975 230.057 173.011ZM222.558 161.654C227.322 162.313 232.196 162.546 237.198 162.354C249.178 162.162 262.895 163.017 274.358 159.392C286.848 155.179 293.91 148.217 296.626 139.807C300.966 126.35 295.064 110.406 284.703 98.0951C274.338 85.3172 259.335 75.6475 244.235 76.6603C234.566 77.1578 225.133 81.9284 217.097 92.7537C207.184 106.213 206.751 121.904 211.288 136.928C213.69 145.649 217.684 153.971 222.558 161.654Z" fill="black"/>
<path fill-rule="evenodd" clip-rule="evenodd" d="M520.328 240.613C518.148 242.215 515.236 243.571 512.319 244.926C506.657 247.694 500.88 249.958 497.38 252.515C476.002 267.736 450.555 286.254 434.891 307.575C433.184 309.8 433.676 313.225 436.078 314.959C438.476 316.692 441.774 316.397 443.622 313.753C458.555 293.585 483.039 276.139 503.685 261.14C507.378 258.647 514.365 255.859 520.132 253.126C525.096 250.592 529.31 247.806 531.643 244.392C533.097 242.549 533.519 238.497 529.639 234.407C524.071 228.82 506.477 219.681 504.819 218.662C488.005 208.388 473.379 198.846 467.198 179.08C466.242 176.432 463.184 174.946 460.488 175.443C457.653 176.359 456.03 179.545 456.99 182.195C464.081 204.593 480.071 216.454 499.293 227.998C500.617 228.44 511.159 233.824 518.035 238.915C518.729 239.613 519.646 239.92 520.328 240.613Z" fill="black"/>
</svg>
