<svg width="71" height="70" viewBox="0 0 71 70" fill="none" xmlns="http://www.w3.org/2000/svg">
<g clip-path="url(#clip0_0_100)">
<path d="M65.3607 0H5.69544C4.32497 0 3.01063 0.544418 2.04156 1.51349C1.07249 2.48255 0.528076 3.79689 0.528076 5.16736V64.8326C0.528076 66.2031 1.07249 67.5175 2.04156 68.4865C3.01063 69.4556 4.32497 70 5.69544 70H65.3607C66.7312 70 68.0455 69.4556 69.0146 68.4865C69.9837 67.5175 70.5281 66.2031 70.5281 64.8326V5.16736C70.5281 3.79689 69.9837 2.48255 69.0146 1.51349C68.0455 0.544418 66.7312 0 65.3607 0ZM21.392 59.6313H10.8677V26.2014H21.392V59.6313ZM16.1225 21.5688C14.9287 21.562 13.7637 21.2018 12.7744 20.5336C11.7851 19.8654 11.0159 18.919 10.564 17.8141C10.112 16.7091 9.99746 15.4951 10.2348 14.3251C10.4722 13.1551 11.0508 12.0816 11.8977 11.2402C12.7446 10.3988 13.8217 9.82703 14.9932 9.59718C16.1647 9.36733 17.378 9.48965 18.48 9.94871C19.5821 10.4078 20.5234 11.183 21.1853 12.1765C21.8471 13.1701 22.1999 14.3374 22.1989 15.5313C22.2102 16.3305 22.0604 17.1239 21.7585 17.864C21.4567 18.6042 21.0089 19.276 20.4418 19.8394C19.8748 20.4028 19.2001 20.8462 18.4581 21.1434C17.716 21.4405 16.9217 21.5851 16.1225 21.5688ZM60.1836 59.6604H49.6642V41.3972C49.6642 36.0111 47.3746 34.3486 44.4191 34.3486C41.2982 34.3486 38.2357 36.7014 38.2357 41.5333V59.6604H27.7114V26.2257H37.8322V30.8583H37.9684C38.9843 28.8021 42.5427 25.2875 47.9725 25.2875C53.8447 25.2875 60.1885 28.7729 60.1885 38.9813L60.1836 59.6604Z" fill="#0A66C2"/>
</g>
<defs>
<clipPath id="clip0_0_100">
<rect width="70" height="70" fill="white" transform="translate(0.528076)"/>
</clipPath>
</defs>
</svg>
